# Hierarchical Translation and Rotation (.htr) file
# Generated by EVaRT
[Header]
FileType htr
DataType HTRS
FileVersion 1
NumSegments 23
NumFrames 5
DataFrameRate 120
EulerRotationOrder ZYX
CalibrationUnits mm
RotationUnits Degrees
GlobalAxisofGravity Y
BoneLengthAxis Y
ScaleFactor 1
[SegmentNames&Hierarchy]
#CHILD            PARENT
DaveRoot          GLOBAL
Spine1            DaveRoot
Spine2            Spine1
Spine3            Spine2
Spine4            Spine3
Neck              Spine4
Head              Neck
LClavicle         Spine4
LUpperArm         LClavicle
LLowerArm         LUpperArm
LHand             LLowerArm
RClavicle         Spine4
RUpperArm         RClavicle
RLowerArm         RUpperArm
RHand             RLowerArm
RUpperLeg         DaveRoot
RLowerLeg         RUpperLeg
RFoot             RLowerLeg
RToes             RFoot
LUpperLeg         DaveRoot
LLowerLeg         LUpperLeg
LFoot             LLowerLeg
LToes             LFoot
[BasePosition]
#SegmentName      Tx   Ty   Tz   Rx   Ry   Rz   BoneLength
DaveRoot          9999999.000000	9999999.000000	9999999.000000	9999999.000000	9999999.000000	9999999.000000	9999999.000000
Spine1            9999999.000000	9999999.000000	9999999.000000	9999999.000000	9999999.000000	9999999.000000	9999999.000000
Spine2            9999999.000000	9999999.000000	9999999.000000	9999999.000000	9999999.000000	9999999.000000	9999999.000000
Spine3            9999999.000000	9999999.000000	9999999.000000	9999999.000000	9999999.000000	9999999.000000	9999999.000000
Spine4            9999999.000000	9999999.000000	9999999.000000	9999999.000000	9999999.000000	9999999.000000	9999999.000000
Neck              9999999.000000	9999999.000000	9999999.000000	9999999.000000	9999999.000000	9999999.000000	9999999.000000
Head              9999999.000000	9999999.000000	9999999.000000	9999999.000000	9999999.000000	9999999.000000	9999999.000000
LClavicle         9999999.000000	9999999.000000	9999999.000000	9999999.000000	9999999.000000	9999999.000000	9999999.000000
LUpperArm         9999999.000000	9999999.000000	9999999.000000	9999999.000000	9999999.000000	9999999.000000	9999999.000000
LLowerArm         9999999.000000	9999999.000000	9999999.000000	9999999.000000	9999999.000000	9999999.000000	9999999.000000
LHand             9999999.000000	9999999.000000	9999999.000000	9999999.000000	9999999.000000	9999999.000000	9999999.000000
RClavicle         9999999.000000	9999999.000000	9999999.000000	9999999.000000	9999999.000000	9999999.000000	9999999.000000
RUpperArm         9999999.000000	9999999.000000	9999999.000000	9999999.000000	9999999.000000	9999999.000000	9999999.000000
RLowerArm         9999999.000000	9999999.000000	9999999.000000	9999999.000000	9999999.000000	9999999.000000	9999999.000000
RHand             9999999.000000	9999999.000000	9999999.000000	9999999.000000	9999999.000000	9999999.000000	9999999.000000
RUpperLeg         9999999.000000	9999999.000000	9999999.000000	9999999.000000	9999999.000000	9999999.000000	9999999.000000
RLowerLeg         9999999.000000	9999999.000000	9999999.000000	9999999.000000	9999999.000000	9999999.000000	9999999.000000
RFoot             9999999.000000	9999999.000000	9999999.000000	9999999.000000	9999999.000000	9999999.000000	9999999.000000
RToes             9999999.000000	9999999.000000	9999999.000000	9999999.000000	9999999.000000	9999999.000000	9999999.000000
LUpperLeg         9999999.000000	9999999.000000	9999999.000000	9999999.000000	9999999.000000	9999999.000000	9999999.000000
LLowerLeg         9999999.000000	9999999.000000	9999999.000000	9999999.000000	9999999.000000	9999999.000000	9999999.000000
LFoot             9999999.000000	9999999.000000	9999999.000000	9999999.000000	9999999.000000	9999999.000000	9999999.000000
LToes             9999999.000000	9999999.000000	9999999.000000	9999999.000000	9999999.000000	9999999.000000	9999999.000000
#Beginning of Data.
[DaveRoot]
#Fr	Tx	Ty	Tz	Rx	Ry	Rz	SF
439	-10001913.153241	-9999048.172682	-10000139.898735	-7.357178	-74.567266	25.710279	0.000010	
440	-10001926.113303	-9999053.202495	-10000125.244558	-17.089662	-75.567070	36.954391	0.000010	
441	-10001939.742227	-9999058.628569	-10000110.058071	-25.205893	-75.797898	47.563278	0.000010	
442	-10001950.038697	-9999064.842594	-10000096.987558	-33.399617	-75.673330	57.710664	0.000010	
443	-10001964.785651	-9999068.296447	-10000082.141830	-39.236072	-75.465444	66.058084	0.000010	
[Spine1]
#Fr	Tx	Ty	Tz	Rx	Ry	Rz	SF
439	-9999999.000000	-9999899.000000	-9999999.000000	-0.541625	-1.318407	-0.104660	0.000010	
440	-9999999.000000	-9999899.000000	-9999999.000000	-0.820651	-0.480617	-0.360854	0.000010	
441	-9999999.000000	-9999899.000000	-9999999.000000	-1.385545	0.207083	-0.424956	0.000010	
442	-9999999.000000	-9999899.000000	-9999999.000000	-1.663608	0.955723	-0.610801	0.000010	
443	-9999999.000000	-9999899.000000	-9999999.000000	-2.233023	1.626665	-0.642059	0.000010	
[Spine2]
#Fr	Tx	Ty	Tz	Rx	Ry	Rz	SF
439	-9999999.000000	-9999899.000000	-9999999.000000	-0.541625	-1.318407	-0.104660	0.000010	
440	-9999999.000000	-9999899.000000	-9999999.000000	-0.820651	-0.480617	-0.360854	0.000010	
441	-9999999.000000	-9999899.000000	-9999999.000000	-1.385545	0.207083	-0.424956	0.000010	
442	-9999999.000000	-9999899.000000	-9999999.000000	-1.663608	0.955723	-0.610801	0.000010	
443	-9999999.000000	-9999899.000000	-9999999.000000	-2.233023	1.626665	-0.642059	0.000010	
[Spine3]
#Fr	Tx	Ty	Tz	Rx	Ry	Rz	SF
439	-9999999.000000	-9999899.000000	-9999999.000000	-0.541625	-1.318407	-0.104660	0.000010	
440	-9999999.000000	-9999899.000000	-9999999.000000	-0.820651	-0.480617	-0.360854	0.000010	
441	-9999999.000000	-9999899.000000	-9999999.000000	-1.385545	0.207083	-0.424956	0.000010	
442	-9999999.000000	-9999899.000000	-9999999.000000	-1.663608	0.955723	-0.610801	0.000010	
443	-9999999.000000	-9999899.000000	-9999999.000000	-2.233023	1.626665	-0.642059	0.000010	
[Spine4]
#Fr	Tx	Ty	Tz	Rx	Ry	Rz	SF
439	-9999999.000000	-9999899.000000	-9999999.000000	-0.541625	-1.318407	-0.104660	0.000010	
440	-9999999.000000	-9999899.000000	-9999999.000000	-0.820651	-0.480617	-0.360854	0.000010	
441	-9999999.000000	-9999899.000000	-9999999.000000	-1.385545	0.207083	-0.424956	0.000010	
442	-9999999.000000	-9999899.000000	-9999999.000000	-1.663608	0.955723	-0.610801	0.000010	
443	-9999999.000000	-9999899.000000	-9999999.000000	-2.233023	1.626665	-0.642059	0.000010	
[Neck]
#Fr	Tx	Ty	Tz	Rx	Ry	Rz	SF
439	-9999999.000000	-9999899.000000	-9999999.000000	-11.556841	-10.634651	-0.952910	0.000008	
440	-9999999.000000	-9999899.000000	-9999999.000000	-11.062377	-11.628776	-1.946534	0.000008	
441	-9999999.000000	-9999899.000000	-9999999.000000	-10.640889	-12.628084	-3.427954	0.000008	
442	-9999999.000000	-9999899.000000	-9999999.000000	-9.860904	-13.959284	-4.296519	0.000008	
443	-9999999.000000	-9999899.000000	-9999999.000000	-9.516993	-14.634976	-5.431609	0.000008	
[Head]
#Fr	Tx	Ty	Tz	Rx	Ry	Rz	SF
439	-9999999.000000	-9999919.000000	-9999999.000000	-11.556841	-10.634651	-0.952910	0.000020	
440	-9999999.000000	-9999919.000000	-9999999.000000	-11.062377	-11.628776	-1.946534	0.000020	
441	-9999999.000000	-9999919.000000	-9999999.000000	-10.640889	-12.628084	-3.427954	0.000020	
442	-9999999.000000	-9999919.000000	-9999999.000000	-9.860904	-13.959284	-4.296519	0.000020	
443	-9999999.000000	-9999919.000000	-9999999.000000	-9.516993	-14.634976	-5.431609	0.000020	
[LClavicle]
#Fr	Tx	Ty	Tz	Rx	Ry	Rz	SF
439	-9999999.000000	-9999899.000000	-9999999.000000	7.626983	0.026572	1.323416	0.000020	
440	-9999999.000000	-9999899.000000	-9999999.000000	12.552135	0.303952	0.156953	0.000020	
441	-9999999.000000	-9999899.000000	-9999999.000000	11.082534	1.398730	-5.581728	0.000020	
442	-9999999.000000	-9999899.000000	-9999999.000000	13.892501	1.560760	-4.762331	0.000020	
443	-9999999.000000	-9999899.000000	-9999999.000000	14.861846	2.895020	-9.254144	0.000020	
[LUpperArm]
#Fr	Tx	Ty	Tz	Rx	Ry	Rz	SF
439	-9999999.000000	-9999799.000000	-9999999.000000	23.923313	17.297092	-56.748501	0.000030	
440	-9999999.000000	-9999799.000000	-9999999.000000	20.680352	15.002505	-57.923645	0.000030	
441	-9999999.000000	-9999799.000000	-9999999.000000	23.915876	15.410746	-52.030754	0.000030	
442	-9999999.000000	-9999799.000000	-9999999.000000	21.797910	15.753576	-54.495608	0.000030	
443	-9999999.000000	-9999799.000000	-9999999.000000	21.613780	16.313834	-50.957369	0.000030	
[LLowerArm]
#Fr	Tx	Ty	Tz	Rx	Ry	Rz	SF
439	-9999999.000000	-9999699.000000	-9999999.000000	109.584867	-0.000000	0.000000	0.000020	
440	-9999999.000000	-9999699.000000	-9999999.000000	109.584867	-0.000000	0.000000	0.000020	
441	-9999999.000000	-9999699.000000	-9999999.000000	109.584867	-0.000000	0.000000	0.000020	
442	-9999999.000000	-9999699.000000	-9999999.000000	109.584867	-0.000000	0.000000	0.000020	
443	-9999999.000000	-9999699.000000	-9999999.000000	109.584867	-0.000000	0.000000	0.000020	
[LHand]
#Fr	Tx	Ty	Tz	Rx	Ry	Rz	SF
439	-9999999.000000	-9999799.000000	-9999999.000000	11.741482	0.000000	-0.000000	0.000012	
440	-9999999.000000	-9999799.000000	-9999999.000000	11.741482	0.000000	-0.000000	0.000012	
441	-9999999.000000	-9999799.000000	-9999999.000000	11.741482	0.000000	-0.000000	0.000012	
442	-9999999.000000	-9999799.000000	-9999999.000000	11.741482	0.000000	-0.000000	0.000012	
443	-9999999.000000	-9999799.000000	-9999999.000000	11.741482	0.000000	-0.000000	0.000012	
[RClavicle]
#Fr	Tx	Ty	Tz	Rx	Ry	Rz	SF
439	-9999999.000000	-9999899.000000	-9999999.000000	3.664542	0.029601	-0.264104	0.000020	
440	-9999999.000000	-9999899.000000	-9999999.000000	2.552043	0.007598	0.027613	0.000020	
441	-9999999.000000	-9999899.000000	-9999999.000000	-0.059679	-0.001054	-0.813638	0.000020	
442	-9999999.000000	-9999899.000000	-9999999.000000	-0.746099	-0.041711	-3.001552	0.000020	
443	-9999999.000000	-9999899.000000	-9999999.000000	-3.242094	-0.136550	-2.211104	0.000020	
[RUpperArm]
#Fr	Tx	Ty	Tz	Rx	Ry	Rz	SF
439	-9999999.000000	-9999799.000000	-9999999.000000	-173.827128	-6.314208	-120.797481	0.000030	
440	-9999999.000000	-9999799.000000	-9999999.000000	-175.697974	-7.034548	-124.114355	0.000030	
441	-9999999.000000	-9999799.000000	-9999999.000000	-178.337234	-7.032848	-125.211204	0.000030	
442	-9999999.000000	-9999799.000000	-9999999.000000	-179.698884	-7.718793	-124.976435	0.000030	
443	-9999999.000000	-9999799.000000	-9999999.000000	177.715985	-7.874784	-128.965193	0.000030	
[RLowerArm]
#Fr	Tx	Ty	Tz	Rx	Ry	Rz	SF
439	-9999999.000000	-9999699.000000	-9999999.000000	-111.533512	0.000000	0.000000	0.000020	
440	-9999999.000000	-9999699.000000	-9999999.000000	-113.265294	0.000000	0.000000	0.000020	
441	-9999999.000000	-9999699.000000	-9999999.000000	-113.822879	0.000000	0.000000	0.000020	
442	-9999999.000000	-9999699.000000	-9999999.000000	-114.611982	0.000000	0.000000	0.000020	
443	-9999999.000000	-9999699.000000	-9999999.000000	-115.645169	0.000000	0.000000	0.000020	
[RHand]
#Fr	Tx	Ty	Tz	Rx	Ry	Rz	SF
439	-9999999.000000	-9999799.000000	-9999999.000000	-113.757682	51.281045	-132.355333	0.000012	
440	-9999999.000000	-9999799.000000	-9999999.000000	-116.490133	50.665256	-135.622741	0.000012	
441	-9999999.000000	-9999799.000000	-9999999.000000	-118.346442	48.606067	-138.343066	0.000012	
442	-9999999.000000	-9999799.000000	-9999999.000000	-117.506548	47.808278	-137.198807	0.000012	
443	-9999999.000000	-9999799.000000	-9999999.000000	-118.806728	47.232565	-137.533890	0.000012	
[RUpperLeg]
#Fr	Tx	Ty	Tz	Rx	Ry	Rz	SF
439	-10000114.911102	-10000009.000000	-9999967.941715	22.114093	0.561280	11.326999	0.000053	
440	-10000114.911102	-10000009.000000	-9999967.941715	25.913734	1.617086	10.073968	0.000053	
441	-10000114.911102	-10000009.000000	-9999967.941715	29.966399	2.535256	9.137003	0.000053	
442	-10000114.911102	-10000009.000000	-9999967.941715	33.843750	0.721070	7.119311	0.000053	
443	-10000114.911102	-10000009.000000	-9999967.941715	38.167388	-0.430857	5.633370	0.000053	
[RLowerLeg]
#Fr	Tx	Ty	Tz	Rx	Ry	Rz	SF
439	-9999999.000000	-9999469.000000	-9999999.000000	-4.230334	-0.000000	0.000000	0.000046	
440	-9999999.000000	-9999469.000000	-9999999.000000	-9.479818	-0.000000	0.000000	0.000046	
441	-9999999.000000	-9999469.000000	-9999999.000000	-13.982246	-0.000000	0.000000	0.000046	
442	-9999999.000000	-9999469.000000	-9999999.000000	-18.596785	-0.000000	0.000000	0.000046	
443	-9999999.000000	-9999469.000000	-9999999.000000	-23.230101	-0.000000	0.000000	0.000046	
[RFoot]
#Fr	Tx	Ty	Tz	Rx	Ry	Rz	SF
439	-9999999.000000	-9999539.000000	-9999999.000000	-12.186190	3.993198	0.583612	0.000013	
440	-9999999.000000	-9999539.000000	-9999999.000000	-10.807682	-4.843211	3.687558	0.000013	
441	-9999999.000000	-9999539.000000	-9999999.000000	-5.943664	-7.847860	6.498022	0.000013	
442	-9999999.000000	-9999539.000000	-9999999.000000	-3.122967	-12.392134	4.863546	0.000013	
443	-9999999.000000	-9999539.000000	-9999999.000000	-1.811678	-14.433696	3.972132	0.000013	
[RToes]
#Fr	Tx	Ty	Tz	Rx	Ry	Rz	SF
439	-9999999.000000	-9999869.000000	-9999999.000000	7.500620	0.000000	-0.000000	0.000010	
440	-9999999.000000	-9999869.000000	-9999999.000000	1.903666	0.000000	-0.000000	0.000010	
441	-9999999.000000	-9999869.000000	-9999999.000000	1.840283	0.000000	-0.000000	0.000010	
442	-9999999.000000	-9999869.000000	-9999999.000000	4.397952	-0.000000	-0.000000	0.000010	
443	-9999999.000000	-9999869.000000	-9999999.000000	6.555621	0.000000	-0.000000	0.000010	
[LUpperLeg]
#Fr	Tx	Ty	Tz	Rx	Ry	Rz	SF
439	-9999883.088898	-10000009.000000	-9999967.941715	6.014134	7.313083	-2.129878	0.000053	
440	-9999883.088898	-10000009.000000	-9999967.941715	9.384817	5.894970	-5.402886	0.000053	
441	-9999883.088898	-10000009.000000	-9999967.941715	13.916222	4.945769	-8.141541	0.000053	
442	-9999883.088898	-10000009.000000	-9999967.941715	18.436228	4.128948	-10.747292	0.000053	
443	-9999883.088898	-10000009.000000	-9999967.941715	23.153004	3.515187	-12.888993	0.000053	
[LLowerLeg]
#Fr	Tx	Ty	Tz	Rx	Ry	Rz	SF
439	-9999999.000000	-9999469.000000	-9999999.000000	-67.809604	0.000000	-0.000000	0.000046	
440	-9999999.000000	-9999469.000000	-9999999.000000	-70.413569	0.000000	-0.000000	0.000046	
441	-9999999.000000	-9999469.000000	-9999999.000000	-72.901678	-0.000000	-0.000000	0.000046	
442	-9999999.000000	-9999469.000000	-9999999.000000	-75.731808	0.000000	-0.000000	0.000046	
443	-9999999.000000	-9999469.000000	-9999999.000000	-77.672183	0.000000	-0.000000	0.000046	
[LFoot]
#Fr	Tx	Ty	Tz	Rx	Ry	Rz	SF
439	-9999999.000000	-9999539.000000	-9999999.000000	-34.836148	-12.163685	5.006216	0.000013	
440	-9999999.000000	-9999539.000000	-9999999.000000	-36.762713	-9.162626	7.927655	0.000013	
441	-9999999.000000	-9999539.000000	-9999999.000000	-37.727330	-6.504648	10.639478	0.000013	
442	-9999999.000000	-9999539.000000	-9999999.000000	-38.242894	-3.442849	12.595791	0.000013	
443	-9999999.000000	-9999539.000000	-9999999.000000	-38.361705	-0.400650	13.906684	0.000013	
[LToes]
#Fr	Tx	Ty	Tz	Rx	Ry	Rz	SF
439	-9999999.000000	-9999869.000000	-9999999.000000	5.436104	0.000000	-0.000000	0.000010	
440	-9999999.000000	-9999869.000000	-9999999.000000	7.085950	0.000000	-0.000000	0.000010	
441	-9999999.000000	-9999869.000000	-9999999.000000	8.571779	0.000000	-0.000000	0.000010	
442	-9999999.000000	-9999869.000000	-9999999.000000	10.379558	0.000000	-0.000000	0.000010	
443	-9999999.000000	-9999869.000000	-9999999.000000	12.318972	0.000000	-0.000000	0.000010	
